<svg xmlns="http://www.w3.org/2000/svg" width="285.5494384765625" height="265.7293701171875" viewBox="-31.773942947387695 -40.6904411315918 285.5494384765625 265.7293701171875"><title>Neo4j Graph Visualization</title><desc>Created using Neo4j (http://www.neo4j.com/)</desc><g class="layer relationships"><g class="relationship" transform="translate(162.16403078208052 196.0389464557128) rotate(243.82224196247319)"><path class="outline" fill="#A5ABB6" stroke="none" d="M 25 0.5 L 31.40068461131723 0.5 L 31.40068461131723 -0.5 L 25 -0.5 Z M 76.96318461131723 0.5 L 83.36386922263446 0.5 L 83.36386922263446 3.5 L 90.36386922263446 0 L 83.36386922263446 -3.5 L 83.36386922263446 -0.5 L 76.96318461131723 -0.5 Z"/><text text-anchor="middle" pointer-events="none" font-size="8px" fill="#000000" x="54.18193461131723" y="3" transform="rotate(180 54.18193461131723 0)" font-family="sans-serif">ACTED_IN</text></g><g class="relationship" transform="translate(224.775478653735 91.47642077092767) rotate(539.4792952616197)"><path class="outline" fill="#A5ABB6" stroke="none" d="M 25 0.5 L 35.368167442032124 0.5 L 35.368167442032124 -0.5 L 25 -0.5 Z M 71.14160494203213 0.5 L 81.50977238406425 0.5 L 81.50977238406425 3.5 L 88.50977238406425 0 L 81.50977238406425 -3.5 L 81.50977238406425 -0.5 L 71.14160494203213 -0.5 Z"/><text text-anchor="middle" pointer-events="none" font-size="8px" fill="#000000" x="53.254886192032124" y="3" transform="rotate(180 53.254886192032124 0)" font-family="sans-serif">WROTE</text></g><g class="relationship" transform="translate(156.26643878767482 -11.690441700937807) rotate(473.35615343803204)"><path class="outline" fill="#A5ABB6" stroke="none" d="M 25 0.5 L 29.80404024262743 0.5 L 29.80404024262743 -0.5 L 25 -0.5 Z M 76.69466524262742 0.5 L 81.49870548525486 0.5 L 81.49870548525486 3.5 L 88.49870548525486 0 L 81.49870548525486 -3.5 L 81.49870548525486 -0.5 L 76.69466524262742 -0.5 Z"/><text text-anchor="middle" pointer-events="none" font-size="8px" fill="#000000" x="53.24935274262743" y="3" transform="rotate(180 53.24935274262743 0)" font-family="sans-serif">DIRECTED</text></g><g class="relationship" transform="translate(35.58754305021899 5.463095712410855) rotate(408.9940456609877)"><path class="outline" fill="#A5ABB6" stroke="none" d="M 25 0.5 L 31.391764913083826 0.5 L 31.391764913083826 -0.5 L 25 -0.5 Z M 76.95426491308382 0.5 L 83.34602982616765 0.5 L 83.34602982616765 3.5 L 90.34602982616765 0 L 83.34602982616765 -3.5 L 83.34602982616765 -0.5 L 76.95426491308382 -0.5 Z"/><text text-anchor="middle" pointer-events="none" font-size="8px" fill="#000000" x="54.173014913083826" y="3" font-family="sans-serif">ACTED_IN</text></g><g class="relationship" transform="translate(-2.7739423778756236 106.18471789028749) rotate(353.1614795851916)"><path class="outline" fill="#A5ABB6" stroke="none" d="M 25 0.5 L 31.14949879494946 0.5 L 31.14949879494946 -0.5 L 25 -0.5 Z M 76.71199879494947 0.5 L 82.86149758989892 0.5 L 82.86149758989892 3.5 L 89.86149758989892 0 L 82.86149758989892 -3.5 L 82.86149758989892 -0.5 L 76.71199879494947 -0.5 Z"/><text text-anchor="middle" pointer-events="none" font-size="8px" fill="#000000" x="53.93074879494946" y="3" font-family="sans-serif">ACTED_IN</text></g><g class="relationship" transform="translate(54.45048530250916 192.3424608505446) rotate(299.6459851332905)"><path class="outline" fill="#A5ABB6" stroke="none" d="M 25 0.5 L 36.04895094013495 0.5 L 36.04895094013495 -0.5 L 25 -0.5 Z M 71.82238844013494 0.5 L 82.8713393802699 0.5 L 82.8713393802699 3.5 L 89.8713393802699 0 L 82.8713393802699 -3.5 L 82.8713393802699 -0.5 L 71.82238844013494 -0.5 Z"/><text text-anchor="middle" pointer-events="none" font-size="8px" fill="#000000" x="53.93566969013495" y="3" font-family="sans-serif">WROTE</text></g></g><g class="layer nodes"><g class="node" transform="translate(111.27039373493754,92.50798475762566)"><circle class="outline" cx="0" cy="0" r="25" fill="#57C7E3" stroke="#23b3d7" stroke-width="2px"/><text text-anchor="middle" pointer-events="none" font-family="sans-serif" dy="1.5625" font-size="25" fill="#2A2C34"/><text text-anchor="middle" pointer-events="none" font-family="sans-serif" dy="1.5625" font-size="25" fill="#2A2C34"/><text text-anchor="middle" pointer-events="none" font-family="sans-serif" dy="1.5625" font-size="25" fill="#2A2C34"/><text text-anchor="middle" pointer-events="none" x="0" y="-5" font-size="10px" fill="#2A2C34" font-family="sans-serif"> Captain</text><text text-anchor="middle" pointer-events="none" x="0" y="5" font-size="10px" fill="#2A2C34" font-family="sans-serif"> America:</text><text text-anchor="middle" pointer-events="none" x="0" y="15" font-size="10px" fill="#2A2C34" font-family="sans-serif"> The Fi…</text></g><g class="node" transform="translate(162.16403078208052,196.0389464557128)"><circle class="outline" cx="0" cy="0" r="25" fill="#F79767" stroke="#f36924" stroke-width="2px"/><text text-anchor="middle" pointer-events="none" font-family="sans-serif" dy="1.5625" font-size="25" fill="#FFFFFF"/><text text-anchor="middle" pointer-events="none" font-family="sans-serif" dy="1.5625" font-size="25" fill="#FFFFFF"/><text text-anchor="middle" pointer-events="none" font-family="sans-serif" dy="1.5625" font-size="25" fill="#FFFFFF"/><text text-anchor="middle" pointer-events="none" x="0" y="-5" font-size="10px" fill="#FFFFFF" font-family="sans-serif"> Samuel</text><text text-anchor="middle" pointer-events="none" x="0" y="5" font-size="10px" fill="#FFFFFF" font-family="sans-serif"> L.</text><text text-anchor="middle" pointer-events="none" x="0" y="15" font-size="10px" fill="#FFFFFF" font-family="sans-serif"> Jackson</text></g><g class="node" transform="translate(224.775478653735,91.47642077092767)"><circle class="outline" cx="0" cy="0" r="25" fill="#F79767" stroke="#f36924" stroke-width="2px"/><text text-anchor="middle" pointer-events="none" font-family="sans-serif" dy="1.5625" font-size="25" fill="#FFFFFF"/><text text-anchor="middle" pointer-events="none" font-family="sans-serif" dy="1.5625" font-size="25" fill="#FFFFFF"/><text text-anchor="middle" pointer-events="none" x="0" y="0" font-size="10px" fill="#FFFFFF" font-family="sans-serif"> Stephen</text><text text-anchor="middle" pointer-events="none" x="0" y="10" font-size="10px" fill="#FFFFFF" font-family="sans-serif"> McFeely</text></g><g class="node" transform="translate(156.26643878767482,-11.690441700937807)"><circle class="outline" cx="0" cy="0" r="25" fill="#F79767" stroke="#f36924" stroke-width="2px"/><text text-anchor="middle" pointer-events="none" font-family="sans-serif" dy="1.5625" font-size="25" fill="#FFFFFF"/><text text-anchor="middle" pointer-events="none" font-family="sans-serif" dy="1.5625" font-size="25" fill="#FFFFFF"/><text text-anchor="middle" pointer-events="none" x="0" y="0" font-size="10px" fill="#FFFFFF" font-family="sans-serif"> Joe</text><text text-anchor="middle" pointer-events="none" x="0" y="10" font-size="10px" fill="#FFFFFF" font-family="sans-serif"> Johnston</text></g><g class="node" transform="translate(35.58754305021899,5.463095712410855)"><circle class="outline" cx="0" cy="0" r="25" fill="#F79767" stroke="#f36924" stroke-width="2px"/><text text-anchor="middle" pointer-events="none" font-family="sans-serif" dy="1.5625" font-size="25" fill="#FFFFFF"/><text text-anchor="middle" pointer-events="none" font-family="sans-serif" dy="1.5625" font-size="25" fill="#FFFFFF"/><text text-anchor="middle" pointer-events="none" x="0" y="0" font-size="10px" fill="#FFFFFF" font-family="sans-serif"> Chris</text><text text-anchor="middle" pointer-events="none" x="0" y="10" font-size="10px" fill="#FFFFFF" font-family="sans-serif"> Evans</text></g><g class="node" transform="translate(-2.7739423778756236,106.18471789028749)"><circle class="outline" cx="0" cy="0" r="25" fill="#F79767" stroke="#f36924" stroke-width="2px"/><text text-anchor="middle" pointer-events="none" font-family="sans-serif" dy="1.5625" font-size="25" fill="#FFFFFF"/><text text-anchor="middle" pointer-events="none" font-family="sans-serif" dy="1.5625" font-size="25" fill="#FFFFFF"/><text text-anchor="middle" pointer-events="none" x="0" y="0" font-size="10px" fill="#FFFFFF" font-family="sans-serif"> Hugo</text><text text-anchor="middle" pointer-events="none" x="0" y="10" font-size="10px" fill="#FFFFFF" font-family="sans-serif"> Weaving</text></g><g class="node" transform="translate(54.45048530250916,192.3424608505446)"><circle class="outline" cx="0" cy="0" r="25" fill="#F79767" stroke="#f36924" stroke-width="2px"/><text text-anchor="middle" pointer-events="none" font-family="sans-serif" dy="1.5625" font-size="25" fill="#FFFFFF"/><text text-anchor="middle" pointer-events="none" x="0" y="5" font-size="10px" fill="#FFFFFF" font-family="sans-serif"> Christop…</text></g></g></svg>