<svg xmlns="http://www.w3.org/2000/svg" width="363.0675964355469" height="364.8970947265625" viewBox="-89.84420013427734 -76.87528991699219 363.0675964355469 364.8970947265625"><title>Neo4j Graph Visualization</title><desc>Created using Neo4j (http://www.neo4j.com/)</desc><g class="layer relationships"><g class="relationship" transform="translate(136.12163052241178 259.0217690818196) rotate(330.0475180033183)"><path class="outline" fill="#A5ABB6" stroke="none" d="M 21.40063509461097,12.933012701892217 L 21.90063509461097,12.06698729810778 A 57.59056383168666 57.59056383168666 0 0 0 24.247731704065757,13.350345936974925 L 23.788486585652162,14.238655523331666 A 58.59056383168666 58.59056383168666 0 0 1 21.40063509461097,12.933012701892217 Z M 74.27845287334938,15.827142122489889 L 73.87595570792458,14.911720890583503 A 57.59056383168666 57.59056383168666 0 0 0 76.29908324520483,13.778440330376416 L 74.9653665111799,11.091211335039052 L 82.79157035666283,11.11430611687446 L 78.07737222390475,17.361412324159566 L 76.74365548987981,14.674183328822203 A 58.59056383168666 58.59056383168666 0 0 1 74.27845287334938,15.827142122489889"/><text text-anchor="middle" pointer-events="none" font-size="8px" fill="#000000" x="48.869208568991276" y="23.253931509555656" font-family="sans-serif">PRODUCED</text></g><g class="relationship" transform="translate(136.12163052241178 259.0217690818196) rotate(330.0475180033183)"><path class="outline" fill="#A5ABB6" stroke="none" d="M 25 0.5 L 25.64726015890377 0.5 L 25.64726015890377 -0.5 L 25 -0.5 Z M 72.53788515890378 0.5 L 73.18514531780754 0.5 L 73.18514531780754 3.5 L 80.18514531780754 0 L 73.18514531780754 -3.5 L 73.18514531780754 -0.5 L 72.53788515890378 -0.5 Z"/><text text-anchor="middle" pointer-events="none" font-size="8px" fill="#000000" x="49.09257265890377" y="3" font-family="sans-serif">DIRECTED</text></g><g class="relationship" transform="translate(136.12163052241178 259.0217690818196) rotate(330.0475180033183)"><path class="outline" fill="#A5ABB6" stroke="none" d="M 21.40063509461097,-12.933012701892217 L 21.90063509461097,-12.06698729810778 A 57.59056383168666 57.59056383168666 0 0 1 31.52485211933811,-16.4981114454894 L 31.19196659755115,-17.441078692738543 A 58.59056383168666 58.59056383168666 0 0 0 21.40063509461097,-12.933012701892217 Z M 66.68830824350633,-18.55784440223517 L 66.41535659076249,-17.59581665041904 A 57.59056383168666 57.59056383168666 0 0 1 76.29908324520483,-13.778440330376416 L 74.9653665111799,-11.091211335039052 L 82.79157035666283,-11.11430611687446 L 78.07737222390475,-17.361412324159566 L 76.74365548987981,-14.674183328822203 A 58.59056383168666 58.59056383168666 0 0 0 66.68830824350633,-18.55784440223517"/><text text-anchor="middle" pointer-events="none" font-size="8px" fill="#000000" x="48.86920856899128" y="-17.253931509555656" font-family="sans-serif">WROTE</text></g><g class="relationship" transform="translate(244.2234062405965 15.533429615726504) rotate(200.83734580460754)"><path class="outline" fill="#A5ABB6" stroke="none" d="M 24.018736134675446,6.953439040707552 L 24.277555179777966,5.987513214418485 A 99.55643837248364 99.55643837248364 0 0 0 25.347732075024034,6.267902666660078 L 25.099662479306616,7.236644879883286 A 100.55643837248364 100.55643837248364 0 0 1 24.018736134675446,6.953439040707552 Z M 71.7882946630116,8.000827464779988 L 71.57206149563035,7.02448571245948 A 99.55643837248364 99.55643837248364 0 0 0 72.65084131191915,6.779269603660265 L 71.96963422411069,3.8576336058810194 L 79.58152648803879,5.676725731737088 L 73.55911742899708,10.674784267365926 L 72.87791034118862,7.7531482695866805 A 100.55643837248364 100.55643837248364 0 0 1 71.7882946630116,8.000827464779988"/><text text-anchor="middle" pointer-events="none" font-size="8px" fill="#000000" x="48.40718935139399" y="12.866416744862875" transform="rotate(180 48.40718935139399 9.866416744862875)" font-family="sans-serif">DIRECTED</text></g><g class="relationship" transform="translate(244.2234062405965 15.533429615726504) rotate(200.83734580460754)"><path class="outline" fill="#A5ABB6" stroke="none" d="M 24.018736134675446,-6.953439040707552 L 24.277555179777966,-5.987513214418485 A 99.55643837248364 99.55643837248364 0 0 1 30.741013238372663,-7.490433767552872 L 30.547116745384873,-8.47145576017435 A 100.55643837248364 100.55643837248364 0 0 0 24.018736134675446,-6.953439040707552 Z M 66.303347309746,-9.05670076352601 L 66.14166010125152,-8.069858705945734 A 99.55643837248364 99.55643837248364 0 0 1 72.65084131191915,-6.779269603660265 L 71.96963422411069,-3.8576336058810194 L 79.58152648803879,-5.676725731737088 L 73.55911742899708,-10.674784267365926 L 72.87791034118862,-7.7531482695866805 A 100.55643837248364 100.55643837248364 0 0 0 66.303347309746,-9.05670076352601"/><text text-anchor="middle" pointer-events="none" font-size="8px" fill="#000000" x="48.40718935139396" y="-6.866416744862875" transform="rotate(180 48.40718935139396 -9.866416744862875)" font-family="sans-serif">WROTE</text></g><g class="relationship" transform="translate(46.67617460827088 -47.87528664199562) rotate(374.7512086023741)"><path class="outline" fill="#A5ABB6" stroke="none" d="M 24.018736134675446,6.953439040707552 L 24.277555179777966,5.987513214418485 A 99.37665802602824 99.37665802602824 0 0 0 25.303918430044476,6.256661969370313 L 25.055427396274332,7.225296165615646 A 100.37665802602824 100.37665802602824 0 0 1 24.018736134675446,6.953439040707552 Z M 71.74292214047942,7.990080190469513 L 71.52629015000922,7.013826852086012 A 99.37665802602824 99.37665802602824 0 0 0 72.56091817265319,6.778439026254979 L 71.87978866884589,3.856784940117604 L 79.49163262427494,5.676079198394171 L 73.46909084439625,10.673977807771479 L 72.78796134058895,7.752323721634104 A 100.37665802602824 100.37665802602824 0 0 1 71.74292214047942,7.990080190469513"/><text text-anchor="middle" pointer-events="none" font-size="8px" fill="#000000" x="48.36227502942254" y="12.860293243664955" font-family="sans-serif">DIRECTED</text></g><g class="relationship" transform="translate(46.67617460827088 -47.87528664199562) rotate(374.7512086023741)"><path class="outline" fill="#A5ABB6" stroke="none" d="M 24.018736134675446,-6.953439040707552 L 24.277555179777966,-5.987513214418485 A 99.37665802602824 99.37665802602824 0 0 1 30.696677193632283,-7.481258082503146 L 30.502452009315192,-8.462215052903474 A 100.37665802602824 100.37665802602824 0 0 0 24.018736134675446,-6.953439040707552 Z M 66.25830712939944,-9.047928785042103 L 66.09631548180316,-8.061136655914055 A 99.37665802602824 99.37665802602824 0 0 1 72.56091817265319,-6.778439026254979 L 71.87978866884589,-3.856784940117604 L 79.49163262427494,-5.676079198394171 L 73.46909084439625,-10.673977807771479 L 72.78796134058895,-7.752323721634104 A 100.37665802602824 100.37665802602824 0 0 0 66.25830712939944,-9.047928785042103"/><text text-anchor="middle" pointer-events="none" font-size="8px" fill="#000000" x="48.36227502942252" y="-6.860293243664955" font-family="sans-serif">WROTE</text></g><g class="relationship" transform="translate(-60.84419893287128 95.66832837945852) rotate(432.01832965953105)"><path class="outline" fill="#A5ABB6" stroke="none" d="M 21.40063509461097,12.933012701892217 L 21.90063509461097,12.06698729810778 A 57.17816305751566 57.17816305751566 0 0 0 31.331198159575752,16.422184032602793 L 30.99613110881161,17.364378318030283 A 58.17816305751566 58.17816305751566 0 0 1 21.40063509461097,12.933012701892217 Z M 66.48641159291165,18.484962284822835 L 66.21145112443263,17.523506752427394 A 57.17816305751566 57.17816305751566 0 0 0 75.89798091709233,13.771920568644608 L 74.56487070848881,11.084390629887256 L 82.39106914229339,11.109251738362628 L 77.67546119523034,17.355293820321076 L 76.34235098662683,14.667763881563724 A 58.17816305751566 58.17816305751566 0 0 1 66.48641159291165,18.484962284822835"/><text text-anchor="middle" pointer-events="none" font-size="8px" fill="#000000" x="48.66947090672491" y="23.198679190371188" font-family="sans-serif">WROTE</text></g><g class="relationship" transform="translate(-60.84419893287128 95.66832837945852) rotate(432.01832965953105)"><path class="outline" fill="#A5ABB6" stroke="none" d="M 25 0.5 L 25.448263482635653 0.5 L 25.448263482635653 -0.5 L 25 -0.5 Z M 72.33888848263565 0.5 L 72.7871519652713 0.5 L 72.7871519652713 3.5 L 79.7871519652713 0 L 72.7871519652713 -3.5 L 72.7871519652713 -0.5 L 72.33888848263565 -0.5 Z"/><text text-anchor="middle" pointer-events="none" font-size="8px" fill="#000000" x="48.89357598263565" y="3" font-family="sans-serif">DIRECTED</text></g><g class="relationship" transform="translate(-60.84419893287128 95.66832837945852) rotate(432.01832965953105)"><path class="outline" fill="#A5ABB6" stroke="none" d="M 21.40063509461097,-12.933012701892217 L 21.90063509461097,-12.06698729810778 A 57.17816305751566 57.17816305751566 0 0 1 24.06347588879301,-13.254236735534292 L 23.601302231552687,-14.141026175341231 A 58.17816305751566 58.17816305751566 0 0 0 21.40063509461097,-12.933012701892217 Z M 74.06985875295133,-15.734540075305475 L 73.6645495975854,-14.820360394620899 A 57.17816305751566 57.17816305751566 0 0 1 75.89798091709233,-13.771920568644608 L 74.56487070848881,-11.084390629887256 L 82.39106914229339,-11.109251738362628 L 77.67546119523034,-17.355293820321076 L 76.34235098662683,-14.667763881563724 A 58.17816305751566 58.17816305751566 0 0 0 74.06985875295133,-15.734540075305475"/><text text-anchor="middle" pointer-events="none" font-size="8px" fill="#000000" x="48.6694709067249" y="-17.198679190371188" font-family="sans-serif">PRODUCED</text></g></g><g class="layer nodes"><g class="node" transform="translate(136.12163052241178,259.0217690818196)"><circle class="outline" cx="0" cy="0" r="25" fill="#F79767" stroke="#f36924" stroke-width="2px"/><text text-anchor="middle" pointer-events="none" font-family="sans-serif" dy="1.5625" font-size="25" fill="#FFFFFF"/><text text-anchor="middle" pointer-events="none" font-family="sans-serif" dy="1.5625" font-size="25" fill="#FFFFFF"/><text text-anchor="middle" pointer-events="none" x="0" y="0" font-size="10px" fill="#FFFFFF" font-family="sans-serif"> Cameron</text><text text-anchor="middle" pointer-events="none" x="0" y="10" font-size="10px" fill="#FFFFFF" font-family="sans-serif"> Crowe</text></g><g class="node" transform="translate(227.25822455521498,206.5047620876248)"><circle class="outline" cx="0" cy="0" r="25" fill="#57C7E3" stroke="#23b3d7" stroke-width="2px"/><text text-anchor="middle" pointer-events="none" font-family="sans-serif" dy="1.5625" font-size="25" fill="#2A2C34"/><text text-anchor="middle" pointer-events="none" font-family="sans-serif" dy="1.5625" font-size="25" fill="#2A2C34"/><text text-anchor="middle" pointer-events="none" x="0" y="0" font-size="10px" fill="#2A2C34" font-family="sans-serif"> Jerry</text><text text-anchor="middle" pointer-events="none" x="0" y="10" font-size="10px" fill="#2A2C34" font-family="sans-serif"> Maguire</text></g><g class="node" transform="translate(244.2234062405965,15.533429615726504)"><circle class="outline" cx="0" cy="0" r="25" fill="#F79767" stroke="#f36924" stroke-width="2px"/><text text-anchor="middle" pointer-events="none" font-family="sans-serif" dy="1.5625" font-size="25" fill="#FFFFFF"/><text text-anchor="middle" pointer-events="none" font-family="sans-serif" dy="1.5625" font-size="25" fill="#FFFFFF"/><text text-anchor="middle" pointer-events="none" x="0" y="0" font-size="10px" fill="#FFFFFF" font-family="sans-serif"> Lilly</text><text text-anchor="middle" pointer-events="none" x="0" y="10" font-size="10px" fill="#FFFFFF" font-family="sans-serif"> Wacho…</text></g><g class="node" transform="translate(147.09245840775645,-21.435620394452382)"><circle class="outline" cx="0" cy="0" r="25" fill="#57C7E3" stroke="#23b3d7" stroke-width="2px"/><text text-anchor="middle" pointer-events="none" font-family="sans-serif" dy="1.5625" font-size="25" fill="#2A2C34"/><text text-anchor="middle" pointer-events="none" font-family="sans-serif" dy="1.5625" font-size="25" fill="#2A2C34"/><text text-anchor="middle" pointer-events="none" x="0" y="0" font-size="10px" fill="#2A2C34" font-family="sans-serif"> Speed</text><text text-anchor="middle" pointer-events="none" x="0" y="10" font-size="10px" fill="#2A2C34" font-family="sans-serif"> Racer</text></g><g class="node" transform="translate(46.67617460827088,-47.87528664199562)"><circle class="outline" cx="0" cy="0" r="25" fill="#F79767" stroke="#f36924" stroke-width="2px"/><text text-anchor="middle" pointer-events="none" font-family="sans-serif" dy="1.5625" font-size="25" fill="#FFFFFF"/><text text-anchor="middle" pointer-events="none" font-family="sans-serif" dy="1.5625" font-size="25" fill="#FFFFFF"/><text text-anchor="middle" pointer-events="none" x="0" y="0" font-size="10px" fill="#FFFFFF" font-family="sans-serif"> Lana</text><text text-anchor="middle" pointer-events="none" x="0" y="10" font-size="10px" fill="#FFFFFF" font-family="sans-serif"> Wacho…</text></g><g class="node" transform="translate(-60.84419893287128,95.66832837945852)"><circle class="outline" cx="0" cy="0" r="25" fill="#F79767" stroke="#f36924" stroke-width="2px"/><text text-anchor="middle" pointer-events="none" font-family="sans-serif" dy="1.5625" font-size="25" fill="#FFFFFF"/><text text-anchor="middle" pointer-events="none" font-family="sans-serif" dy="1.5625" font-size="25" fill="#FFFFFF"/><text text-anchor="middle" pointer-events="none" x="0" y="0" font-size="10px" fill="#FFFFFF" font-family="sans-serif"> Nancy</text><text text-anchor="middle" pointer-events="none" x="0" y="10" font-size="10px" fill="#FFFFFF" font-family="sans-serif"> Meyers</text></g><g class="node" transform="translate(-28.495071881797738,195.33718608348943)"><circle class="outline" cx="0" cy="0" r="25" fill="#57C7E3" stroke="#23b3d7" stroke-width="2px"/><text text-anchor="middle" pointer-events="none" font-family="sans-serif" dy="1.5625" font-size="25" fill="#2A2C34"/><text text-anchor="middle" pointer-events="none" x="0" y="5" font-size="10px" fill="#2A2C34" font-family="sans-serif"> Somethi…</text></g></g></svg>