<svg xmlns="http://www.w3.org/2000/svg" width="317.33837890625" height="253.42471313476562" viewBox="-71.38294219970703 -21.68267822265625 317.33837890625 253.42471313476562"><title>Neo4j Graph Visualization</title><desc>Created using Neo4j (http://www.neo4j.com/)</desc><g class="layer relationships"><g class="relationship" transform="translate(126.99609031733587 202.74204084497066) rotate(212.52230242748487)"><path class="outline" fill="#A5ABB6" stroke="none" d="M 24.018736134675446,-6.953439040707552 L 24.277555179777966,-5.987513214418485 A 132.80598633263537 132.80598633263537 0 0 1 33.76406035183481,-8.160245586304569 L 33.57667261366371,-9.142531611647058 A 133.80598633263537 133.80598633263537 0 0 0 24.018736134675446,-6.953439040707552 Z M 79.97536387367337,-9.802513496684071 L 79.8159906594259,-8.815295091983046 A 132.80598633263537 132.80598633263537 0 0 1 89.36045590040551,-6.9132620735958366 L 88.66673305698193,-3.9945725360615176 L 96.28635196188952,-5.781023695196529 L 90.28541969163696,-10.804848123641595 L 89.59169684821337,-7.8861585861072765 A 133.80598633263537 133.80598633263537 0 0 0 79.97536387367337,-9.802513496684071"/><text text-anchor="middle" pointer-events="none" font-size="8px" fill="#000000" x="56.75430136396065" y="-7.999283847986135" transform="rotate(180 56.75430136396065 -10.999283847986135)" font-family="sans-serif">twowheeler</text></g><g class="relationship" transform="translate(126.99609031733587 202.74204084497066) rotate(212.52230242748487)"><path class="outline" fill="#A5ABB6" stroke="none" d="M 24.018736134675446,6.953439040707552 L 24.277555179777966,5.987513214418485 A 132.80598633263537 132.80598633263537 0 0 0 47.14408631504594,10.013385865226638 L 47.057447242900324,11.009625631135293 A 133.80598633263537 133.80598633263537 0 0 1 24.018736134675446,6.953439040707552 Z M 66.44693827284625,11.285424635209381 L 66.38866984450274,10.287123683462681 A 132.80598633263537 132.80598633263537 0 0 0 89.36045590040551,6.9132620735958366 L 88.66673305698193,3.9945725360615176 L 96.28635196188952,5.781023695196529 L 90.28541969163696,10.804848123641595 L 89.59169684821337,7.8861585861072765 A 133.80598633263537 133.80598633263537 0 0 1 66.44693827284625,11.285424635209381"/><text text-anchor="middle" pointer-events="none" font-size="8px" fill="#000000" x="56.75430136396068" y="13.999283847986135" transform="rotate(180 56.75430136396068 10.999283847986135)" font-family="sans-serif">trek</text></g><g class="relationship" transform="translate(126.99609031733587 202.74204084497066) rotate(319.4525168394912)"><path class="outline" fill="#A5ABB6" stroke="none" d="M 25 0.5 L 46.02612890168239 0.5 L 46.02612890168239 -0.5 L 25 -0.5 Z M 65.3620664016824 0.5 L 86.38819530336478 0.5 L 86.38819530336478 3.5 L 93.38819530336478 0 L 86.38819530336478 -3.5 L 86.38819530336478 -0.5 L 65.3620664016824 -0.5 Z"/><text text-anchor="middle" pointer-events="none" font-size="8px" fill="#000000" x="55.69409765168239" y="3" font-family="sans-serif">trek</text></g><g class="relationship" transform="translate(216.95543025093448 125.78047936198818) rotate(248.49932385833029)"><path class="outline" fill="#A5ABB6" stroke="none" d="M 25 0.5 L 45.589134230431426 0.5 L 45.589134230431426 -0.5 L 25 -0.5 Z M 64.92507173043143 0.5 L 85.51420596086285 0.5 L 85.51420596086285 3.5 L 92.51420596086285 0 L 85.51420596086285 -3.5 L 85.51420596086285 -0.5 L 64.92507173043143 -0.5 Z"/><text text-anchor="middle" pointer-events="none" font-size="8px" fill="#000000" x="55.257102980431426" y="3" transform="rotate(180 55.257102980431426 0)" font-family="sans-serif">trek</text></g><g class="relationship" transform="translate(25.300922157196574 137.89940893236238) rotate(230.6038445560033)"><path class="outline" fill="#A5ABB6" stroke="none" d="M 24.018736134675446,-6.953439040707552 L 24.277555179777966,-5.987513214418485 A 104.98870893173795 104.98870893173795 0 0 1 26.881156857256272,-6.649563108365086 L 26.647136685327542,-7.621794849839546 A 105.98870893173795 105.98870893173795 0 0 0 24.018736134675446,-6.953439040707552 Z M 72.94982051620417,-8.36152148345154 L 72.74697638157079,-7.382310445398531 A 104.98870893173795 104.98870893173795 0 0 1 75.37039764470111,-6.803766900625818 L 74.68690228650361,-3.8826653797398265 L 82.30021708646802,-5.695794651645952 L 76.28172478896447,-10.698568928473806 L 75.59822943076696,-7.777467407587815 A 105.98870893173795 105.98870893173795 0 0 0 72.94982051620417,-8.36152148345154"/><text text-anchor="middle" pointer-events="none" font-size="8px" fill="#000000" x="49.765571472523206" y="-7.0514574026977215" transform="rotate(180 49.765571472523206 -10.051457402697721)" font-family="sans-serif">twowheeler</text></g><g class="relationship" transform="translate(25.300922157196574 137.89940893236238) rotate(230.6038445560033)"><path class="outline" fill="#A5ABB6" stroke="none" d="M 24.018736134675446,6.953439040707552 L 24.277555179777966,5.987513214418485 A 104.98870893173795 104.98870893173795 0 0 0 40.17314343048716,8.957466843068246 L 40.06572722110332,9.95168098396627 A 105.98870893173795 105.98870893173795 0 0 1 24.018736134675446,6.953439040707552 Z M 59.46365284332204,10.261580130892412 L 59.3880502593105,9.264442101685432 A 104.98870893173795 104.98870893173795 0 0 0 75.37039764470111,6.803766900625818 L 74.68690228650361,3.8826653797398265 L 82.30021708646802,5.695794651645952 L 76.28172478896447,10.698568928473806 L 75.59822943076696,7.777467407587815 A 105.98870893173795 105.98870893173795 0 0 1 59.46365284332204,10.261580130892412"/><text text-anchor="middle" pointer-events="none" font-size="8px" fill="#000000" x="49.765571472523234" y="13.051457402697721" transform="rotate(180 49.765571472523234 10.051457402697721)" font-family="sans-serif">trek</text></g><g class="relationship" transform="translate(25.300922157196574 137.89940893236238) rotate(281.84106667242696)"><path class="outline" fill="#A5ABB6" stroke="none" d="M 24.018736134675446,-6.953439040707552 L 24.277555179777966,-5.987513214418485 A 158.17146806661893 158.17146806661893 0 0 1 40.11853877086505,-9.373349422101256 L 39.95987042793857,-10.36068136068775 A 159.17146806661893 159.17146806661893 0 0 0 24.018736134675446,-6.953439040707552 Z M 86.40088786546966,-10.960889093154492 L 86.26778898402088,-9.969786329684894 A 158.17146806661893 158.17146806661893 0 0 1 102.19098462115542,-6.994473126022927 L 101.48967657427674,-4.077596881924935 L 109.11391386519719,-5.844233723989009 L 103.12606201699366,-10.883641451486918 L 102.42475397011498,-7.966765207388925 A 159.17146806661893 159.17146806661893 0 0 0 86.40088786546966,-10.960889093154492"/><text text-anchor="middle" pointer-events="none" font-size="8px" fill="#000000" x="63.16483095199106" y="-8.863825345753611" font-family="sans-serif">twowheeler</text></g><g class="relationship" transform="translate(25.300922157196574 137.89940893236238) rotate(281.84106667242696)"><path class="outline" fill="#A5ABB6" stroke="none" d="M 24.018736134675446,6.953439040707552 L 24.277555179777966,5.987513214418485 A 158.17146806661893 158.17146806661893 0 0 0 53.54434869565938,10.94590388704475 L 53.47056171653955,11.943177912432134 A 159.17146806661893 159.17146806661893 0 0 1 24.018736134675446,6.953439040707552 Z M 72.853811445288,12.193688711063487 L 72.80582251843556,11.194840843318076 A 158.17146806661893 158.17146806661893 0 0 0 102.19098462115542,6.994473126022927 L 101.48967657427674,4.077596881924935 L 109.11391386519719,5.844233723989009 L 103.12606201699366,10.883641451486918 L 102.42475397011498,7.966765207388925 A 159.17146806661893 159.17146806661893 0 0 1 72.853811445288,12.193688711063487"/><text text-anchor="middle" pointer-events="none" font-size="8px" fill="#000000" x="63.16483095199112" y="14.863825345753611" font-family="sans-serif">trek</text></g><g class="relationship" transform="translate(52.67863559961244 7.317321115061874) rotate(364.30603053143517)"><path class="outline" fill="#A5ABB6" stroke="none" d="M 24.018736134675446,6.953439040707552 L 24.277555179777966,5.987513214418485 A 134.67282881822425 134.67282881822425 0 0 0 47.61389948654838,10.082798605281226 L 47.528362197770065,11.079133575172591 A 135.67282881822425 135.67282881822425 0 0 1 24.018736134675446,6.953439040707552 Z M 66.9173476350268,11.352903350137723 L 66.85997506037747,10.354550512871185 A 134.67282881822425 134.67282881822425 0 0 0 90.30264273273649,6.9197782584002 L 89.60831125836668,4.001233449133185 L 97.22830253342116,5.7860956197484645 L 91.22841803189624,10.811171337422886 L 90.53408655752644,7.892626528155871 A 135.67282881822425 135.67282881822425 0 0 1 66.9173476350268,11.352903350137723"/><text text-anchor="middle" pointer-events="none" font-size="8px" fill="#000000" x="57.22501684507149" y="14.062905857132677" font-family="sans-serif">trek</text></g><g class="relationship" transform="translate(52.67863559961244 7.317321115061874) rotate(364.30603053143517)"><path class="outline" fill="#A5ABB6" stroke="none" d="M 24.018736134675446,-6.953439040707552 L 24.277555179777966,-5.987513214418485 A 134.67282881822425 134.67282881822425 0 0 1 34.22968962760931,-8.253742936794708 L 34.044769189487596,-9.236496431606554 A 135.67282881822425 135.67282881822425 0 0 0 24.018736134675446,-6.953439040707552 Z M 80.44759044206747,-9.89169780731413 L 80.29049087768189,-8.904115037684221 A 134.67282881822425 134.67282881822425 0 0 1 90.30264273273649,-6.9197782584002 L 89.60831125836668,-4.001233449133185 L 97.22830253342116,-5.7860956197484645 L 91.22841803189624,-10.811171337422886 L 90.53408655752644,-7.892626528155871 A 135.67282881822425 135.67282881822425 0 0 0 80.44759044206747,-9.89169780731413"/><text text-anchor="middle" pointer-events="none" font-size="8px" fill="#000000" x="57.2250168450715" y="-8.062905857132677" font-family="sans-serif">twowheeler</text></g><g class="relationship" transform="translate(-42.38294279675461 55.488449493279504) rotate(333.12702386184185)"><path class="outline" fill="#A5ABB6" stroke="none" d="M 21.40063509461097,12.933012701892217 L 21.90063509461097,12.06698729810778 A 59.02469429345955 59.02469429345955 0 0 0 27.271583242610454,14.81203154498332 L 26.862578176379976,15.724563657184198 A 60.02469429345955 60.02469429345955 0 0 1 21.40063509461097,12.933012701892217 Z M 72.51511322728537,17.1431981872666 L 72.1635557352509,16.207031893387978 A 59.02469429345955 59.02469429345955 0 0 0 77.694578936094,13.80076210852626 L 76.35878565451836,11.114564738842239 L 84.185005012286,11.131610679797083 L 79.47563664486154,17.38235860143829 L 78.13984336328589,14.696161231754267 A 60.02469429345955 60.02469429345955 0 0 1 72.51511322728537,17.1431981872666"/><text text-anchor="middle" pointer-events="none" font-size="8px" fill="#000000" x="49.564168252102135" y="23.446078231105552" font-family="sans-serif">twowheeler</text></g><g class="relationship" transform="translate(-42.38294279675461 55.488449493279504) rotate(333.12702386184185)"><path class="outline" fill="#A5ABB6" stroke="none" d="M 25 0.5 L 40.117022796493096 0.5 L 40.117022796493096 -0.5 L 25 -0.5 Z M 59.452960296493096 0.5 L 74.56998309298619 0.5 L 74.56998309298619 3.5 L 81.56998309298619 0 L 74.56998309298619 -3.5 L 74.56998309298619 -0.5 L 59.452960296493096 -0.5 Z"/><text text-anchor="middle" pointer-events="none" font-size="8px" fill="#000000" x="49.784991546493096" y="3" font-family="sans-serif">trek</text></g><g class="relationship" transform="translate(-42.38294279675461 55.488449493279504) rotate(364.4807273610242)"><path class="outline" fill="#A5ABB6" stroke="none" d="M 25 0.5 L 46.20433327794816 0.5 L 46.20433327794816 -0.5 L 25 -0.5 Z M 65.54027077794817 0.5 L 86.74460405589632 0.5 L 86.74460405589632 3.5 L 93.74460405589632 0 L 86.74460405589632 -3.5 L 86.74460405589632 -0.5 L 65.54027077794817 -0.5 Z"/><text text-anchor="middle" pointer-events="none" font-size="8px" fill="#000000" x="55.87230202794816" y="3" font-family="sans-serif">trek</text></g><g class="relationship" transform="translate(-42.38294279675461 55.488449493279504) rotate(333.12702386184185)"><path class="outline" fill="#A5ABB6" stroke="none" d="M 21.40063509461097,-12.933012701892217 L 21.90063509461097,-12.06698729810778 A 59.02469429345955 59.02469429345955 0 0 1 38.764845001714306,-18.603716186463302 L 38.550559482898365,-19.5804872530013 A 60.02469429345955 60.02469429345955 0 0 0 21.40063509461097,-12.933012701892217 Z M 60.61027127383235,-20.26598410077525 L 60.45704618637874,-19.27779278702328 A 59.02469429345955 59.02469429345955 0 0 1 77.694578936094,-13.80076210852626 L 76.35878565451836,-11.114564738842239 L 84.185005012286,-11.131610679797083 L 79.47563664486154,-17.38235860143829 L 78.13984336328589,-14.696161231754267 A 60.02469429345955 60.02469429345955 0 0 0 60.61027127383235,-20.26598410077525"/><text text-anchor="middle" pointer-events="none" font-size="8px" fill="#000000" x="49.564168252102114" y="-17.446078231105552" font-family="sans-serif">road</text></g><g class="relationship" transform="translate(75.99873840896853 64.7652241104687) rotate(333.7267755742291)"><path class="outline" fill="#A5ABB6" stroke="none" d="M 25 0.5 L 41.4138437654403 0.5 L 41.4138437654403 -0.5 L 25 -0.5 Z M 60.7497812654403 0.5 L 77.1636250308806 0.5 L 77.1636250308806 3.5 L 84.1636250308806 0 L 77.1636250308806 -3.5 L 77.1636250308806 -0.5 L 60.7497812654403 -0.5 Z"/><text text-anchor="middle" pointer-events="none" font-size="8px" fill="#000000" x="51.0818125154403" y="3" font-family="sans-serif">trek</text></g></g><g class="layer nodes"><g class="node" transform="translate(126.99609031733587,202.74204084497066)"><circle class="outline" cx="0" cy="0" r="25" fill="#F16667" stroke="#eb2728" stroke-width="2px"/><text text-anchor="middle" pointer-events="none" font-family="sans-serif" dy="1.5625" font-size="25" fill="#FFFFFF"/><text text-anchor="middle" pointer-events="none" x="0" y="5" font-size="10px" fill="#FFFFFF" font-family="sans-serif"> Rimbik</text></g><g class="node" transform="translate(216.95543025093448,125.78047936198818)"><circle class="outline" cx="0" cy="0" r="25" fill="#8DCC93" stroke="#5db665" stroke-width="2px"/><text text-anchor="middle" pointer-events="none" font-family="sans-serif" dy="1.5625" font-size="25" fill="#2A2C34"/><text text-anchor="middle" pointer-events="none" x="0" y="5" font-size="10px" fill="#2A2C34" font-family="sans-serif"> BhikeBh…</text></g><g class="node" transform="translate(173.88503933359846,16.443705910235213)"><circle class="outline" cx="0" cy="0" r="25" fill="#D9C8AE" stroke="#c0a378" stroke-width="2px"/><text text-anchor="middle" pointer-events="none" font-family="sans-serif" dy="1.5625" font-size="25" fill="#2A2C34"/><text text-anchor="middle" pointer-events="none" x="0" y="5" font-size="10px" fill="#2A2C34" font-family="sans-serif"> Sandak…</text></g><g class="node" transform="translate(25.300922157196574,137.89940893236238)"><circle class="outline" cx="0" cy="0" r="25" fill="#8DCC93" stroke="#5db665" stroke-width="2px"/><text text-anchor="middle" pointer-events="none" font-family="sans-serif" dy="1.5625" font-size="25" fill="#2A2C34"/><text text-anchor="middle" pointer-events="none" x="0" y="5" font-size="10px" fill="#2A2C34" font-family="sans-serif"> Sirikhola</text></g><g class="node" transform="translate(52.67863559961244,7.317321115061874)"><circle class="outline" cx="0" cy="0" r="25" fill="#8DCC93" stroke="#5db665" stroke-width="2px"/><text text-anchor="middle" pointer-events="none" font-family="sans-serif" dy="1.5625" font-size="25" fill="#2A2C34"/><text text-anchor="middle" pointer-events="none" x="0" y="5" font-size="10px" fill="#2A2C34" font-family="sans-serif"> Gurdum</text></g><g class="node" transform="translate(-42.38294279675461,55.488449493279504)"><circle class="outline" cx="0" cy="0" r="25" fill="#8DCC93" stroke="#5db665" stroke-width="2px"/><text text-anchor="middle" pointer-events="none" font-family="sans-serif" dy="1.5625" font-size="25" fill="#2A2C34"/><text text-anchor="middle" pointer-events="none" x="0" y="5" font-size="10px" fill="#2A2C34" font-family="sans-serif"> Rammam</text></g><g class="node" transform="translate(75.99873840896853,64.7652241104687)"><circle class="outline" cx="0" cy="0" r="25" fill="#D9C8AE" stroke="#c0a378" stroke-width="2px"/><text text-anchor="middle" pointer-events="none" font-family="sans-serif" dy="1.5625" font-size="25" fill="#2A2C34"/><text text-anchor="middle" pointer-events="none" x="0" y="5" font-size="10px" fill="#2A2C34" font-family="sans-serif"> Sabargr…</text></g></g></svg>