<svg xmlns="http://www.w3.org/2000/svg" width="380.36376953125" height="350.95465087890625" viewBox="-75.39152526855469 -80.53880310058594 380.36376953125 350.95465087890625"><title>Neo4j Graph Visualization</title><desc>Created using Neo4j (http://www.neo4j.com/)</desc><g class="layer relationships"><g class="relationship" transform="translate(21.36512966271696 -22.085902146768785) rotate(383.7404697665196)"><path class="outline" fill="#A5ABB6" stroke="none" d="M 24.018736134675446,-6.953439040707552 L 24.277555179777966,-5.987513214418485 A 160.70807263673635 160.70807263673635 0 0 1 54.18617124004723,-11.038089351511616 L 54.11345744510146,-12.03544219981788 A 161.70807263673635 161.70807263673635 0 0 0 24.018736134675446,-6.953439040707552 Z M 73.49615290571367,-12.283671255483796 L 73.44900443809848,-11.284783362874464 A 160.70807263673635 160.70807263673635 0 0 1 103.47715290746247,-7.001801520862537 L 102.7751603962478,-4.085089928298316 L 110.39981204198143,-5.849937593455656 L 104.41314292241537,-10.890750310948164 L 103.7111504112007,-7.974038718383944 A 161.70807263673635 161.70807263673635 0 0 0 73.49615290571367,-12.283671255483796"/><text text-anchor="middle" pointer-events="none" font-size="8px" fill="#000000" x="63.80748520473406" y="-8.950289556563945" font-family="sans-serif">trek</text></g><g class="relationship" transform="translate(144.67186389276935 32.14588019445647) rotate(377.1793197481293)"><path class="outline" fill="#A5ABB6" stroke="none" d="M 21.40063509461097,-12.933012701892217 L 21.90063509461097,-12.06698729810778 A 90.7273576516406 90.7273576516406 0 0 1 54.15233799851544,-23.26967317548305 L 54.0078173570981,-24.259174961335063 A 91.7273576516406 91.7273576516406 0 0 0 21.40063509461097,-12.933012701892217 Z M 76.07996487747565,-24.79754230001572 L 75.98385777068941,-23.802171301832047 A 90.7273576516406 90.7273576516406 0 0 1 108.74337843257204,-14.185190638830367 L 107.37182748303138,-11.51707370121048 L 115.19757644527522,-11.429591246172151 L 110.57211303195959,-17.742679888990217 L 109.20056208241893,-15.074562951370329 A 91.7273576516406 91.7273576516406 0 0 0 76.07996487747565,-24.79754230001572"/><text text-anchor="middle" pointer-events="none" font-size="8px" fill="#000000" x="65.03982595434924" y="-21.69502341437824" font-family="sans-serif">road</text></g><g class="relationship" transform="translate(275.97222907583034 72.73820599271497) rotate(216.10441185047023)"><path class="outline" fill="#A5ABB6" stroke="none" d="M 21.40063509461097,12.933012701892217 L 21.90063509461097,12.06698729810778 A 41.637542638556766 41.637542638556766 0 0 0 23.800881192080436,13.09925006139813 L 23.34651899818165,13.9900671002762 A 42.637542638556766 42.637542638556766 0 0 1 21.40063509461097,12.933012701892217 Z M 59.27321886317619,15.300709290155815 L 58.88497387003446,14.379153092574583 A 41.637542638556766 41.637542638556766 0 0 0 60.8553846203628,13.488095788909932 L 59.548680834029405,10.787628197032191 L 67.37425963246643,10.889198219444962 L 62.59765633547399,17.08871924474692 L 61.2909525491406,14.388251652869178 A 42.637542638556766 42.637542638556766 0 0 1 59.27321886317619,15.300709290155815"/><text text-anchor="middle" pointer-events="none" font-size="8px" fill="#000000" x="41.18320832058889" y="21.117348550650227" transform="rotate(180 41.18320832058889 18.117348550650227)" font-family="sans-serif">twowh…</text></g><g class="relationship" transform="translate(203.3556659453679 19.77673200752398) rotate(465.8965738763323)"><path class="outline" fill="#A5ABB6" stroke="none" d="M 25 0.5 L 59.05130838935246 0.5 L 59.05130838935246 -0.5 L 25 -0.5 Z M 78.38724588935246 0.5 L 112.43855427870491 0.5 L 112.43855427870491 3.5 L 119.43855427870491 0 L 112.43855427870491 -3.5 L 112.43855427870491 -0.5 L 78.38724588935246 -0.5 Z"/><text text-anchor="middle" pointer-events="none" font-size="8px" fill="#000000" x="68.71927713935246" y="3" transform="rotate(180 68.71927713935246 0)" font-family="sans-serif">trek</text></g><g class="relationship" transform="translate(275.97222907583034 72.73820599271497) rotate(216.10441185047023)"><path class="outline" fill="#A5ABB6" stroke="none" d="M 25 0.5 L 31.771109365723788 0.5 L 31.771109365723788 -0.5 L 25 -0.5 Z M 51.10704686572379 0.5 L 57.878156231447576 0.5 L 57.878156231447576 3.5 L 64.87815623144758 0 L 57.878156231447576 -3.5 L 57.878156231447576 -0.5 L 51.10704686572379 -0.5 Z"/><text text-anchor="middle" pointer-events="none" font-size="8px" fill="#000000" x="41.43907811572379" y="3" transform="rotate(180 41.43907811572379 0)" font-family="sans-serif">trek</text></g><g class="relationship" transform="translate(275.97222907583034 72.73820599271497) rotate(216.10441185047023)"><path class="outline" fill="#A5ABB6" stroke="none" d="M 21.40063509461097,-12.933012701892217 L 21.90063509461097,-12.06698729810778 A 41.637542638556766 41.637542638556766 0 0 1 30.50803344296076,-15.814441783555232 L 30.21475549721521,-16.770469004161043 A 42.637542638556766 42.637542638556766 0 0 0 21.40063509461097,-12.933012701892217 Z M 52.22064534454534,-17.57326602610118 L 51.99780794954819,-16.598410398128053 A 41.637542638556766 41.637542638556766 0 0 1 60.8553846203628,-13.488095788909932 L 59.548680834029405,-10.787628197032191 L 67.37425963246643,-10.889198219444962 L 62.59765633547399,-17.08871924474692 L 61.2909525491406,-14.388251652869178 A 42.637542638556766 42.637542638556766 0 0 0 52.22064534454534,-17.57326602610118"/><text text-anchor="middle" pointer-events="none" font-size="8px" fill="#000000" x="41.183208320588875" y="-15.117348550650227" transform="rotate(180 41.183208320588875 -18.117348550650227)" font-family="sans-serif">road</text></g><g class="relationship" transform="translate(144.67186389276935 32.14588019445647) rotate(377.1793197481293)"><path class="outline" fill="#A5ABB6" stroke="none" d="M 25 0.5 L 55.54797337938716 0.5 L 55.54797337938716 -0.5 L 25 -0.5 Z M 74.88391087938716 0.5 L 105.43188425877432 0.5 L 105.43188425877432 3.5 L 112.43188425877432 0 L 105.43188425877432 -3.5 L 105.43188425877432 -0.5 L 74.88391087938716 -0.5 Z"/><text text-anchor="middle" pointer-events="none" font-size="8px" fill="#000000" x="65.21594212938716" y="3" font-family="sans-serif">trek</text></g><g class="relationship" transform="translate(144.67186389276935 32.14588019445647) rotate(377.1793197481293)"><path class="outline" fill="#A5ABB6" stroke="none" d="M 21.40063509461097,12.933012701892217 L 21.90063509461097,12.06698729810778 A 90.7273576516406 90.7273576516406 0 0 0 42.274011574342055,20.712553939152556 L 41.99856761793319,21.67387107042498 A 91.7273576516406 91.7273576516406 0 0 1 21.40063509461097,12.933012701892217 Z M 88.20097632592305,22.8008057193436 L 87.97272749218902,21.82720288969537 A 90.7273576516406 90.7273576516406 0 0 0 108.74337843257204,14.185190638830367 L 107.37182748303138,11.51707370121048 L 115.19757644527522,11.429591246172151 L 110.57211303195959,17.742679888990217 L 109.20056208241893,15.074562951370329 A 91.7273576516406 91.7273576516406 0 0 1 88.20097632592305,22.8008057193436"/><text text-anchor="middle" pointer-events="none" font-size="8px" fill="#000000" x="65.03982595434924" y="27.69502341437824" font-family="sans-serif">twowheeler</text></g><g class="relationship" transform="translate(21.36512966271696 -22.085902146768785) rotate(383.7404697665196)"><path class="outline" fill="#A5ABB6" stroke="none" d="M 24.018736134675446,6.953439040707552 L 24.277555179777966,5.987513214418485 A 160.70807263673635 160.70807263673635 0 0 0 52.85637850616789,10.935589312760783 L 52.77539012543399,11.932304358391235 A 161.70807263673635 161.70807263673635 0 0 1 24.018736134675446,6.953439040707552 Z M 74.83642266281261,12.214834168803662 L 74.78098598957325,11.216371963579974 A 160.70807263673635 160.70807263673635 0 0 0 103.47715290746247,7.001801520862537 L 102.7751603962478,4.085089928298316 L 110.39981204198143,5.849937593455656 L 104.41314292241537,10.890750310948164 L 103.7111504112007,7.974038718383944 A 161.70807263673635 161.70807263673635 0 0 1 74.83642266281261,12.214834168803662"/><text text-anchor="middle" pointer-events="none" font-size="8px" fill="#000000" x="63.80748520473413" y="14.950289556563973" font-family="sans-serif">road</text></g><g class="relationship" transform="translate(21.36512966271696 -22.085902146768785) rotate(339.55765366734784)"><path class="outline" fill="#A5ABB6" stroke="none" d="M 21.40063509461097,12.933012701892217 L 21.90063509461097,12.06698729810778 A 35.79552028367013 35.79552028367013 0 0 0 27.795919437033387,14.790440846908105 L 27.460612792394723,15.732549892645999 A 36.79552028367013 36.79552028367013 0 0 1 21.40063509461097,12.933012701892217 Z M 49.4187058009441,16.58278687397732 L 49.15725249112998,15.617570749584836 A 35.79552028367013 35.79552028367013 0 0 0 55.24547897450545,13.358129447490581 L 53.95086861971983,10.651843426153992 L 61.77591475008843,10.788419623213553 L 56.97162611421962,16.9665108092727 L 55.67701575943399,14.260224787936112 A 36.79552028367013 36.79552028367013 0 0 1 49.4187058009441,16.58278687397732"/><text text-anchor="middle" pointer-events="none" font-size="8px" fill="#000000" x="38.39405263666637" y="20.335499157724684" font-family="sans-serif">road</text></g><g class="relationship" transform="translate(100.3827782780351 -51.53879835309322) rotate(394.70516063168793)"><path class="outline" fill="#A5ABB6" stroke="none" d="M 25 0.5 L 49.46054006420787 0.5 L 49.46054006420787 -0.5 L 25 -0.5 Z M 68.79647756420786 0.5 L 93.25701762841574 0.5 L 93.25701762841574 3.5 L 100.25701762841574 0 L 93.25701762841574 -3.5 L 93.25701762841574 -0.5 L 68.79647756420786 -0.5 Z"/><text text-anchor="middle" pointer-events="none" font-size="8px" fill="#000000" x="59.12850881420787" y="3" font-family="sans-serif">trek</text></g><g class="relationship" transform="translate(100.3827782780351 -51.53879835309322) rotate(493.02315419238437)"><path class="outline" fill="#A5ABB6" stroke="none" d="M 24.018736134675446,-6.953439040707552 L 24.277555179777966,-5.987513214418485 A 187.77831267220833 187.77831267220833 0 0 1 61.05183906667621,-12.013121915703806 L 60.98885884536316,-13.011136691006953 A 188.77831267220833 188.77831267220833 0 0 0 24.018736134675446,-6.953439040707552 Z M 80.36630673880533,-13.237331818602144 L 80.32664038160442,-12.23811883824888 A 187.77831267220833 187.77831267220833 0 0 1 117.2315598412855,-7.072575760348876 L 116.52295722706111,-4.157463012080919 L 124.15159002294813,-5.905021785203288 L 118.17636332691802,-10.959392758039485 L 117.46776071269363,-8.044280009771528 A 188.77831267220833 188.77831267220833 0 0 0 80.36630673880533,-13.237331818602144"/><text text-anchor="middle" pointer-events="none" font-size="8px" fill="#000000" x="70.6805145693508" y="-9.873077822649009" transform="rotate(180 70.6805145693508 -12.873077822649009)" font-family="sans-serif">trek</text></g><g class="relationship" transform="translate(-0.899784899506684 56.98549293242329) rotate(422.3373928291342)"><path class="outline" fill="#A5ABB6" stroke="none" d="M 24.018736134675446,-6.953439040707552 L 24.277555179777966,-5.987513214418485 A 114.12346639176636 114.12346639176636 0 0 1 42.45553548582879,-9.309439222071475 L 42.355999898202484,-10.304473224905493 A 115.12346639176636 115.12346639176636 0 0 0 24.018736134675446,-6.953439040707552 Z M 61.750977831175085,-10.60231083072901 L 61.682042310860886,-9.604689713250536 A 114.12346639176636 114.12346639176636 0 0 1 79.95345296772284,-6.842496197979694 L 79.26634000088806,-3.9222435084325173 L 86.88189473780538,-5.725941390289757 L 80.8696035901692,-10.736166450709263 L 80.18249062333443,-7.815913761162086 A 115.12346639176636 115.12346639176636 0 0 0 61.750977831175085,-10.60231083072901"/><text text-anchor="middle" pointer-events="none" font-size="8px" fill="#000000" x="52.054882135904265" y="-7.362663174406634" font-family="sans-serif">trek</text></g><g class="relationship" transform="translate(50.73443205935371 155.490330278051) rotate(361.6219061962462)"><path class="outline" fill="#A5ABB6" stroke="none" d="M 24.018736134675446,6.953439040707552 L 24.277555179777966,5.987513214418485 A 117.8849909516652 117.8849909516652 0 0 0 30.057576740558087,7.381039466612407 L 29.847788717251632,8.35878635884842 A 118.8849909516652 118.8849909516652 0 0 1 24.018736134675446,6.953439040707552 Z M 76.2046567424253,9.059454098281307 L 76.02451439980338,8.075813545846273 A 117.8849909516652 117.8849909516652 0 0 0 81.84401133800307,6.85760993194571 L 81.15548665433178,3.9376897686577887 L 88.7719124996201,5.737705697260701 L 82.76204424956478,10.750836816329604 L 82.07351956589349,7.830916653041683 A 118.8849909516652 118.8849909516652 0 0 1 76.2046567424253,9.059454098281307"/><text text-anchor="middle" pointer-events="none" font-size="8px" fill="#000000" x="52.999292866644346" y="13.490826512111255" font-family="sans-serif">twowheeler</text></g><g class="relationship" transform="translate(50.73443205935371 155.490330278051) rotate(361.6219061962462)"><path class="outline" fill="#A5ABB6" stroke="none" d="M 24.018736134675446,-6.953439040707552 L 24.277555179777966,-5.987513214418485 A 117.8849909516652 117.8849909516652 0 0 1 43.39744661086603,-9.452712019834607 L 43.30081862398675,-10.448032587366313 A 118.8849909516652 118.8849909516652 0 0 0 24.018736134675446,-6.953439040707552 Z M 62.694630173188806,-10.741163220992988 L 62.62812729389266,-9.743376987852173 A 117.8849909516652 117.8849909516652 0 0 1 81.84401133800307,-6.85760993194571 L 81.15548665433178,-3.9376897686577887 L 88.7719124996201,-5.737705697260701 L 82.76204424956478,-10.750836816329604 L 82.07351956589349,-7.830916653041683 A 118.8849909516652 118.8849909516652 0 0 0 62.694630173188806,-10.741163220992988"/><text text-anchor="middle" pointer-events="none" font-size="8px" fill="#000000" x="52.99929286664431" y="-7.490826512111255" font-family="sans-serif">trek</text></g><g class="relationship" transform="translate(-0.899784899506684 56.98549293242329) rotate(422.3373928291342)"><path class="outline" fill="#A5ABB6" stroke="none" d="M 24.018736134675446,6.953439040707552 L 24.277555179777966,5.987513214418485 A 114.12346639176636 114.12346639176636 0 0 0 29.12810876077299,7.17411162198286 L 28.911792399249528,8.150434945343136 A 115.12346639176636 115.12346639176636 0 0 1 24.018736134675446,6.953439040707552 Z M 75.25498707660424,8.86210093416858 L 75.0687513249065,7.879595847774837 A 114.12346639176636 114.12346639176636 0 0 0 79.95345296772284,6.842496197979694 L 79.26634000088806,3.9222435084325173 L 86.88189473780538,5.725941390289757 L 80.8696035901692,10.736166450709263 L 80.18249062333443,7.815913761162086 A 115.12346639176636 115.12346639176636 0 0 1 75.25498707660424,8.86210093416858"/><text text-anchor="middle" pointer-events="none" font-size="8px" fill="#000000" x="52.054882135904265" y="13.362663174406634" font-family="sans-serif">twowheeler</text></g><g class="relationship" transform="translate(100.3827782780351 -51.53879835309322) rotate(493.02315419238437)"><path class="outline" fill="#A5ABB6" stroke="none" d="M 24.018736134675446,6.953439040707552 L 24.277555179777966,5.987513214418485 A 187.77831267220833 187.77831267220833 0 0 0 47.59262069301889,10.675687187941946 L 47.457964365013204,11.666579550072186 A 188.77831267220833 188.77831267220833 0 0 1 24.018736134675446,6.953439040707552 Z M 93.92490029674411,12.208993316829947 L 93.81341110477996,11.215227670374418 A 187.77831267220833 187.77831267220833 0 0 0 117.2315598412855,7.072575760348876 L 116.52295722706111,4.157463012080919 L 124.15159002294813,5.905021785203288 L 118.17636332691802,10.959392758039485 L 117.46776071269363,8.044280009771528 A 188.77831267220833 188.77831267220833 0 0 1 93.92490029674411,12.208993316829947"/><text text-anchor="middle" pointer-events="none" font-size="8px" fill="#000000" x="70.68051456935085" y="15.873077822649009" transform="rotate(180 70.68051456935085 12.873077822649009)" font-family="sans-serif">twowheeler</text></g><g class="relationship" transform="translate(21.36512966271696 -22.085902146768785) rotate(339.55765366734784)"><path class="outline" fill="#A5ABB6" stroke="none" d="M 25 0.5 L 28.996180380613346 0.5 L 28.996180380613346 -0.5 L 25 -0.5 Z M 48.332117880613346 0.5 L 52.32829826122669 0.5 L 52.32829826122669 3.5 L 59.32829826122669 0 L 52.32829826122669 -3.5 L 52.32829826122669 -0.5 L 48.332117880613346 -0.5 Z"/><text text-anchor="middle" pointer-events="none" font-size="8px" fill="#000000" x="38.664149130613346" y="3" font-family="sans-serif">trek</text></g><g class="relationship" transform="translate(21.36512966271696 -22.085902146768785) rotate(339.55765366734784)"><path class="outline" fill="#A5ABB6" stroke="none" d="M 21.40063509461097,-12.933012701892217 L 21.90063509461097,-12.06698729810778 A 35.79552028367013 35.79552028367013 0 0 1 23.37613313507286,-12.873266550054687 L 22.91735332208981,-13.761816539193866 A 36.79552028367013 36.79552028367013 0 0 0 21.40063509461097,-12.933012701892217 Z M 54.10075081484704,-14.969265553166707 L 53.71205253124787,-14.047900454887497 A 35.79552028367013 35.79552028367013 0 0 1 55.24547897450545,-13.358129447490581 L 53.95086861971983,-10.651843426153992 L 61.77591475008843,-10.788419623213553 L 56.97162611421962,-16.9665108092727 L 55.67701575943399,-14.260224787936112 A 36.79552028367013 36.79552028367013 0 0 0 54.10075081484704,-14.969265553166707"/><text text-anchor="middle" pointer-events="none" font-size="8px" fill="#000000" x="38.394052636666366" y="-14.335499157724684" font-family="sans-serif">Publi…</text></g><g class="relationship" transform="translate(100.3827782780351 -51.53879835309322) rotate(422.1105200203073)"><path class="outline" fill="#A5ABB6" stroke="none" d="M 25 0.5 L 34.17294518339376 0.5 L 34.17294518339376 -0.5 L 25 -0.5 Z M 53.50888268339376 0.5 L 62.681827866787515 0.5 L 62.681827866787515 3.5 L 69.68182786678751 0 L 62.681827866787515 -3.5 L 62.681827866787515 -0.5 L 53.50888268339376 -0.5 Z"/><text text-anchor="middle" pointer-events="none" font-size="8px" fill="#000000" x="43.84091393339376" y="3" font-family="sans-serif">trek</text></g><g class="relationship" transform="translate(-0.899784899506684 56.98549293242329) rotate(470.8054672410817)"><path class="outline" fill="#A5ABB6" stroke="none" d="M 24.018736134675446,-6.953439040707552 L 24.277555179777966,-5.987513214418485 A 147.60213944086334 147.60213944086334 0 0 1 50.87332449552729,-10.559897569630579 L 50.79469097765695,-11.556801160690071 A 148.60213944086334 148.60213944086334 0 0 0 24.018736134675446,-6.953439040707552 Z M 70.1803813576702,-11.81727748403216 L 70.12856123299572,-10.818621049276572 A 147.60213944086334 147.60213944086334 0 0 1 96.83758080861926,-6.962467849869215 L 96.13926205171332,-4.0448745071030725 L 103.76168506789126,-5.819322974216332 L 97.76867248449388,-10.852592306890738 L 97.07035372758793,-7.9349989641245955 A 148.60213944086334 148.60213944086334 0 0 0 70.1803813576702,-11.81727748403216"/><text text-anchor="middle" pointer-events="none" font-size="8px" fill="#000000" x="60.49000140132674" y="-8.50356676756104" transform="rotate(180 60.49000140132674 -11.50356676756104)" font-family="sans-serif">trek</text></g><g class="relationship" transform="translate(-46.39152032281075 176.70891643939922) rotate(347.6765169671203)"><path class="outline" fill="#A5ABB6" stroke="none" d="M 21.40063509461097,12.933012701892217 L 21.90063509461097,12.06698729810778 A 51.60201323653988 51.60201323653988 0 0 0 35.21495697719554,17.44679082778788 L 34.97297640410342,18.41707192223732 A 52.60201323653988 52.60201323653988 0 0 1 21.40063509461097,12.933012701892217 Z M 57.01889851625819,19.14859972618418 L 56.84177113595281,18.164411791312922 A 51.60201323653988 51.60201323653988 0 0 0 70.4834385460897,13.679061918422617 L 69.1589671502483,10.987264095108628 L 76.98504536646259,11.03726163201168 L 72.24940040721158,17.26812568284127 L 70.92492901137018,14.57632785952728 A 52.60201323653988 52.60201323653988 0 0 1 57.01889851625819,19.14859972618418"/><text text-anchor="middle" pointer-events="none" font-size="8px" fill="#000000" x="45.97374365606724" y="22.45168651480681" font-family="sans-serif">road</text></g><g class="relationship" transform="translate(-46.39152032281075 176.70891643939922) rotate(347.6765169671203)"><path class="outline" fill="#A5ABB6" stroke="none" d="M 25 0.5 L 36.54037819703958 0.5 L 36.54037819703958 -0.5 L 25 -0.5 Z M 55.87631569703958 0.5 L 67.41669389407916 0.5 L 67.41669389407916 3.5 L 74.41669389407916 0 L 67.41669389407916 -3.5 L 67.41669389407916 -0.5 L 55.87631569703958 -0.5 Z"/><text text-anchor="middle" pointer-events="none" font-size="8px" fill="#000000" x="46.20834694703958" y="3" font-family="sans-serif">trek</text></g><g class="relationship" transform="translate(-46.39152032281075 176.70891643939922) rotate(347.6765169671203)"><path class="outline" fill="#A5ABB6" stroke="none" d="M 21.40063509461097,-12.933012701892217 L 21.90063509461097,-12.06698729810778 A 51.60201323653988 51.60201323653988 0 0 1 23.915373492793453,-13.171140399643939 L 23.454417287246727,-14.058563284500963 A 52.60201323653988 52.60201323653988 0 0 0 21.40063509461097,-12.933012701892217 Z M 68.8010505712693,-15.56325530390874 L 68.39993647771723,-14.64722720174489 A 51.60201323653988 51.60201323653988 0 0 1 70.4834385460897,-13.679061918422617 L 69.1589671502483,-10.987264095108628 L 76.98504536646259,-11.03726163201168 L 72.24940040721158,-17.26812568284127 L 70.92492901137018,-14.57632785952728 A 52.60201323653988 52.60201323653988 0 0 0 68.8010505712693,-15.56325530390874"/><text text-anchor="middle" pointer-events="none" font-size="8px" fill="#000000" x="45.97374365606723" y="-16.45168651480681" font-family="sans-serif">twowheeler</text></g><g class="relationship" transform="translate(-0.899784899506684 56.98549293242329) rotate(470.8054672410817)"><path class="outline" fill="#A5ABB6" stroke="none" d="M 24.018736134675446,6.953439040707552 L 24.277555179777966,5.987513214418485 A 147.60213944086334 147.60213944086334 0 0 0 37.464004773262204,8.881634777800713 L 37.2945235226079,9.867168189551222 A 148.60213944086334 148.60213944086334 0 0 1 24.018736134675446,6.953439040707552 Z M 83.72107244327091,10.490979698517776 L 83.5781318869758,9.501248423187945 A 147.60213944086334 147.60213944086334 0 0 0 96.83758080861926,6.962467849869215 L 96.13926205171332,4.0448745071030725 L 103.76168506789126,5.819322974216332 L 97.76867248449388,10.852592306890738 L 97.07035372758793,7.9349989641245955 A 148.60213944086334 148.60213944086334 0 0 1 83.72107244327091,10.490979698517776"/><text text-anchor="middle" pointer-events="none" font-size="8px" fill="#000000" x="60.49000140132677" y="14.50356676756104" transform="rotate(180 60.49000140132677 11.50356676756104)" font-family="sans-serif">twowheeler</text></g><g class="relationship" transform="translate(-46.39152032281075 176.70891643939922) rotate(390.4392792198638)"><path class="outline" fill="#A5ABB6" stroke="none" d="M 25 0.5 L 50.69282138800402 0.5 L 50.69282138800402 -0.5 L 25 -0.5 Z M 70.02875888800402 0.5 L 95.72158027600804 0.5 L 95.72158027600804 3.5 L 102.72158027600804 0 L 95.72158027600804 -3.5 L 95.72158027600804 -0.5 L 70.02875888800402 -0.5 Z"/><text text-anchor="middle" pointer-events="none" font-size="8px" fill="#000000" x="60.36079013800402" y="3" font-family="sans-serif">trek</text></g><g class="relationship" transform="translate(63.72575444551042 241.4158547520626) rotate(320.4201197133817)"><path class="outline" fill="#A5ABB6" stroke="none" d="M 25 0.5 L 51.74907867501642 0.5 L 51.74907867501642 -0.5 L 25 -0.5 Z M 71.08501617501642 0.5 L 97.83409485003284 0.5 L 97.83409485003284 3.5 L 104.83409485003284 0 L 97.83409485003284 -3.5 L 97.83409485003284 -0.5 L 71.08501617501642 -0.5 Z"/><text text-anchor="middle" pointer-events="none" font-size="8px" fill="#000000" x="61.41704742501642" y="3" font-family="sans-serif">trek</text></g></g><g class="layer nodes"><g class="node" transform="translate(21.36512966271696,-22.085902146768785)"><circle class="outline" cx="0" cy="0" r="25" fill="#F16667" stroke="#eb2728" stroke-width="2px"/><text text-anchor="middle" pointer-events="none" font-family="sans-serif" dy="1.5625" font-size="25" fill="#FFFFFF"/><text text-anchor="middle" pointer-events="none" x="0" y="5" font-size="10px" fill="#FFFFFF" font-family="sans-serif"> Darjeeling</text></g><g class="node" transform="translate(163.79369910831892,158.69162228969142)"><circle class="outline" cx="0" cy="0" r="25" fill="#D9C8AE" stroke="#c0a378" stroke-width="2px"/><text text-anchor="middle" pointer-events="none" font-family="sans-serif" dy="1.5625" font-size="25" fill="#2A2C34"/><text text-anchor="middle" pointer-events="none" x="0" y="5" font-size="10px" fill="#2A2C34" font-family="sans-serif"> Sandak…</text></g><g class="node" transform="translate(144.67186389276935,32.14588019445647)"><circle class="outline" cx="0" cy="0" r="25" fill="#8DCC93" stroke="#5db665" stroke-width="2px"/><text text-anchor="middle" pointer-events="none" font-family="sans-serif" dy="1.5625" font-size="25" fill="#2A2C34"/><text text-anchor="middle" pointer-events="none" x="0" y="5" font-size="10px" fill="#2A2C34" font-family="sans-serif"> Tumbling</text></g><g class="node" transform="translate(275.97222907583034,72.73820599271497)"><circle class="outline" cx="0" cy="0" r="25" fill="#8DCC93" stroke="#5db665" stroke-width="2px"/><text text-anchor="middle" pointer-events="none" font-family="sans-serif" dy="1.5625" font-size="25" fill="#2A2C34"/><text text-anchor="middle" pointer-events="none" x="0" y="5" font-size="10px" fill="#2A2C34" font-family="sans-serif"> Gairibus</text></g><g class="node" transform="translate(203.3556659453679,19.77673200752398)"><circle class="outline" cx="0" cy="0" r="25" fill="#8DCC93" stroke="#5db665" stroke-width="2px"/><text text-anchor="middle" pointer-events="none" font-family="sans-serif" dy="1.5625" font-size="25" fill="#2A2C34"/><text text-anchor="middle" pointer-events="none" x="0" y="5" font-size="10px" fill="#2A2C34" font-family="sans-serif"> BhikeBh…</text></g><g class="node" transform="translate(100.3827782780351,-51.53879835309322)"><circle class="outline" cx="0" cy="0" r="25" fill="#F16667" stroke="#eb2728" stroke-width="2px"/><text text-anchor="middle" pointer-events="none" font-family="sans-serif" dy="1.5625" font-size="25" fill="#FFFFFF"/><text text-anchor="middle" pointer-events="none" x="0" y="5" font-size="10px" fill="#FFFFFF" font-family="sans-serif"> Rimbik</text></g><g class="node" transform="translate(-0.899784899506684,56.98549293242329)"><circle class="outline" cx="0" cy="0" r="25" fill="#8DCC93" stroke="#5db665" stroke-width="2px"/><text text-anchor="middle" pointer-events="none" font-family="sans-serif" dy="1.5625" font-size="25" fill="#2A2C34"/><text text-anchor="middle" pointer-events="none" x="0" y="5" font-size="10px" fill="#2A2C34" font-family="sans-serif"> Sirikhola</text></g><g class="node" transform="translate(50.73443205935371,155.490330278051)"><circle class="outline" cx="0" cy="0" r="25" fill="#8DCC93" stroke="#5db665" stroke-width="2px"/><text text-anchor="middle" pointer-events="none" font-family="sans-serif" dy="1.5625" font-size="25" fill="#2A2C34"/><text text-anchor="middle" pointer-events="none" x="0" y="5" font-size="10px" fill="#2A2C34" font-family="sans-serif"> Gurdum</text></g><g class="node" transform="translate(-46.39152032281075,176.70891643939922)"><circle class="outline" cx="0" cy="0" r="25" fill="#8DCC93" stroke="#5db665" stroke-width="2px"/><text text-anchor="middle" pointer-events="none" font-family="sans-serif" dy="1.5625" font-size="25" fill="#2A2C34"/><text text-anchor="middle" pointer-events="none" x="0" y="5" font-size="10px" fill="#2A2C34" font-family="sans-serif"> Rammam</text></g><g class="node" transform="translate(63.72575444551042,241.4158547520626)"><circle class="outline" cx="0" cy="0" r="25" fill="#D9C8AE" stroke="#c0a378" stroke-width="2px"/><text text-anchor="middle" pointer-events="none" font-family="sans-serif" dy="1.5625" font-size="25" fill="#2A2C34"/><text text-anchor="middle" pointer-events="none" x="0" y="5" font-size="10px" fill="#2A2C34" font-family="sans-serif"> Sabargr…</text></g></g></svg>